<?xml version="1.0" encoding="UTF-8" standalone="no"?>
<!-- Created with Inkscape (http://www.inkscape.org/) -->

<svg
   xmlns:dc="http://purl.org/dc/elements/1.1/"
   xmlns:cc="http://creativecommons.org/ns#"
   xmlns:rdf="http://www.w3.org/1999/02/22-rdf-syntax-ns#"
   xmlns:svg="http://www.w3.org/2000/svg"
   xmlns="http://www.w3.org/2000/svg"
   xmlns:sodipodi="http://sodipodi.sourceforge.net/DTD/sodipodi-0.dtd"
   xmlns:inkscape="http://www.inkscape.org/namespaces/inkscape"
   width="291.21426mm"
   height="291.21426mm"
   viewBox="0 0 291.21426 291.21426"
   version="1.1"
   id="svg8"
   inkscape:version="0.92.2 (5c3e80d, 2017-08-06)"
   sodipodi:docname="logo-circle.svg"
   inkscape:export-filename="/home/felicianotech/Projects/developer-hustle/design-assets/logo-circle-256x256.png"
   inkscape:export-xdpi="22.33"
   inkscape:export-ydpi="22.33">
  <defs
     id="defs2" />
  <sodipodi:namedview
     id="base"
     pagecolor="#ffffff"
     bordercolor="#666666"
     borderopacity="1.0"
     inkscape:pageopacity="0.0"
     inkscape:pageshadow="2"
     inkscape:zoom="0.7"
     inkscape:cx="380.96666"
     inkscape:cy="475.03083"
     inkscape:document-units="mm"
     inkscape:current-layer="layer1"
     showgrid="false"
     inkscape:window-width="3090"
     inkscape:window-height="1689"
     inkscape:window-x="110"
     inkscape:window-y="55"
     inkscape:window-maximized="1"
     fit-margin-top="0"
     fit-margin-left="0"
     fit-margin-right="0"
     fit-margin-bottom="0" />
  <metadata
     id="metadata5">
    <rdf:RDF>
      <cc:Work
         rdf:about="">
        <dc:format>image/svg+xml</dc:format>
        <dc:type
           rdf:resource="http://purl.org/dc/dcmitype/StillImage" />
        <dc:title></dc:title>
      </cc:Work>
    </rdf:RDF>
  </metadata>
  <g
     inkscape:label="Layer 1"
     inkscape:groupmode="layer"
     id="layer1"
     transform="translate(108.14414,-6.0707116)">
    <g
       id="g848"
       transform="translate(-69.578453,5.8187785)">
      <path
         style="opacity:1;vector-effect:none;fill:#a84037;fill-opacity:1;stroke:#5c211c;stroke-width:12.70423317;stroke-linecap:butt;stroke-linejoin:miter;stroke-miterlimit:4;stroke-dasharray:none;stroke-dashoffset:0;stroke-opacity:1"
         d="M 246.29647,145.85907 A 139.25502,139.25502 0 0 1 107.04145,285.11409 139.25502,139.25502 0 0 1 -32.21357,145.85907 139.25502,139.25502 0 0 1 107.04145,6.6040497 139.25502,139.25502 0 0 1 246.29647,145.85907 Z"
         id="path837" />
      <g
         aria-label="Developer
Hustle"
         transform="matrix(0.26458333,0,0,0.26458333,-6.6817382,32.072344)"
         style="font-style:normal;font-variant:normal;font-weight:normal;font-stretch:normal;font-size:192px;line-height:1;font-family:Bevan;-inkscape-font-specification:Bevan;text-align:center;letter-spacing:0px;word-spacing:0px;text-anchor:middle;fill:#ffffff;fill-opacity:1;stroke:none"
         id="flowRoot839">
        <path
           d="M 7.9453125,413.39519 H 70.601562 q 15.78125,0 28.515625,-5.23437 12.734373,-5.23438 20.781253,-14.0625 8.04687,-8.90625 12.34375,-20.3125 4.29687,-11.40625 4.29687,-24.14063 0,-30.9375 -16.01562,-46.95312 -16.01563,-16.09375 -48.203128,-16.09375 H 7.4765625 v 27.5 H 20.679687 v 71.25 H 7.9453125 Z M 63.414062,385.34832 v -71.25 h 3.671875 q 5.78125,0 10.078125,2.26562 4.296875,2.1875 6.71875,5.625 2.421875,3.35938 3.828125,8.28125 1.484375,4.92188 1.953125,9.45313 0.46875,4.45312 0.46875,9.84375 0,5.23437 -0.625,9.92187 -0.546875,4.6875 -2.1875,9.60938 -1.640625,4.84375 -4.21875,8.35937 -2.578125,3.4375 -6.953125,5.70313 -4.296875,2.1875 -10,2.1875 z"
           style="font-size:160px;line-height:1"
           id="path919" />
        <path
           d="m 188.64844,414.80144 q 12.5,0 22.42187,-2.57812 10,-2.57813 20.3125,-8.75 v -17.5 h -23.98437 q -0.15625,4.60937 -2.73438,7.34375 -2.57812,2.73437 -8.20312,2.73437 -6.40625,0 -10.15625,-5.15625 -3.67188,-5.23437 -3.67188,-13.125 h 47.03125 q 1.48438,0.625 1.79688,0.39063 0.39062,-0.3125 1.09375,-2.57813 0.39062,-2.89062 0.39062,-5.54687 0,-11.71875 -4.92187,-21.09375 -4.84375,-9.375 -14.76563,-15.07813 -9.92187,-5.78125 -23.35937,-5.78125 -14.0625,0 -24.60938,5.85938 -10.46875,5.78125 -15.85937,15.85937 -5.39063,10 -5.39063,22.89063 0,11.48437 5.70313,21.09375 5.70312,9.60937 15.9375,15.3125 10.3125,5.70312 22.96875,5.70312 z m -5.85938,-52.65625 q 0,-4.76562 2.10938,-8.51562 2.10937,-3.82813 6.32812,-3.82813 2.89063,0 4.76563,1.40625 1.875,1.32813 2.57812,3.90625 0.70313,2.5 0.85938,4.53125 0.23437,2.03125 0.15625,4.76563 h -16.79688 z"
           style="font-size:160px;line-height:1"
           id="path921" />
        <path
           d="m 296.07031,329.64519 v 24.29688 q 4.6875,0 6.79688,1.48437 2.1875,1.48438 0.9375,4.84375 l -10.23438,26.71875 -13.20312,-33.04687 h 7.10937 v -24.29688 h -50.3125 v 24.29688 h 5.78125 l 25,59.45312 h 36.95313 l 22.73437,-53.28125 q 1.32813,-3.20312 3.67188,-4.6875 2.34375,-1.48437 7.5,-1.48437 v -24.29688 z"
           style="font-size:160px;line-height:1"
           id="path923" />
        <path
           d="m 387.08594,414.80144 q 12.5,0 22.42187,-2.57812 10,-2.57813 20.3125,-8.75 v -17.5 h -23.98437 q -0.15625,4.60937 -2.73438,7.34375 -2.57812,2.73437 -8.20312,2.73437 -6.40625,0 -10.15625,-5.15625 -3.67188,-5.23437 -3.67188,-13.125 h 47.03125 q 1.48438,0.625 1.79688,0.39063 0.39062,-0.3125 1.09375,-2.57813 0.39062,-2.89062 0.39062,-5.54687 0,-11.71875 -4.92187,-21.09375 -4.84375,-9.375 -14.76563,-15.07813 -9.92187,-5.78125 -23.35937,-5.78125 -14.0625,0 -24.60938,5.85938 -10.46875,5.78125 -15.85937,15.85937 -5.39063,10 -5.39063,22.89063 0,11.48437 5.70313,21.09375 5.70312,9.60937 15.9375,15.3125 10.3125,5.70312 22.96875,5.70312 z m -5.85938,-52.65625 q 0,-4.76562 2.10938,-8.51562 2.10937,-3.82813 6.32812,-3.82813 2.89063,0 4.76563,1.40625 1.875,1.32813 2.57812,3.90625 0.70313,2.5 0.85938,4.53125 0.23437,2.03125 0.15625,4.76563 h -16.79688 z"
           style="font-size:160px;line-height:1"
           id="path925" />
        <path
           d="m 485.28906,389.56707 h 6.09375 v 23.82812 h -50.54687 v -23.82812 h 5.78125 v -79.0625 h -6.5625 v -24.45313 h 45.23437 z"
           style="font-size:160px;line-height:1"
           id="path927" />
        <path
           d="m 499.58594,370.66082 q 0,-20.3125 12.57812,-31.40625 12.57813,-11.09375 34.375,-11.09375 21.95313,0 34.53125,11.09375 12.57813,11.09375 12.57813,31.40625 0,13.67187 -6.01563,23.75 -5.9375,10.07812 -16.5625,15.23437 -10.54687,5.15625 -24.45312,5.15625 -13.90625,0 -24.53125,-5.15625 -10.54688,-5.15625 -16.5625,-15.23437 -5.9375,-10.07813 -5.9375,-23.75 z m 36.32812,0.15625 q 0,19.60937 10.70313,19.60937 10.70312,0 10.70312,-19.60937 0,-3.98438 -0.39062,-6.71875 -0.3125,-2.8125 -1.32813,-5.70313 -1.01562,-2.89062 -3.28125,-4.375 -2.26562,-1.48437 -5.70312,-1.48437 -3.4375,0 -5.70313,1.48437 -2.26562,1.48438 -3.28125,4.375 -1.01562,2.89063 -1.40625,5.70313 -0.3125,2.73437 -0.3125,6.71875 z"
           style="font-size:160px;line-height:1"
           id="path929" />
        <path
           d="m 654.35156,444.41082 v -23.51563 h -8.67187 v -16.79687 q 3.20312,2.57812 4.76562,3.75 1.5625,1.09375 4.92188,3.125 3.4375,1.95312 6.95312,2.8125 3.59375,0.9375 7.65625,0.9375 8.51563,0 15.39063,-3.67188 6.95312,-3.75 11.17187,-9.92187 4.29688,-6.25 6.5625,-13.90625 2.26563,-7.73438 2.26563,-16.09375 0,-8.4375 -2.34375,-16.17188 -2.34375,-7.73437 -6.71875,-13.75 -4.29688,-6.01562 -11.09375,-9.60937 -6.79688,-3.59375 -15.07813,-3.59375 -7.26562,0 -12.57812,2.57812 -5.23438,2.5 -10.23438,8.125 h -0.78125 v -9.0625 h -44.0625 v 24.29688 h 5.78125 v 66.79687 h -6.5625 v 23.67188 z m -8.67187,-63.59375 v -17.8125 q 0.0781,-0.3125 0.23437,-0.78125 0.15625,-0.46875 0.9375,-1.71875 0.78125,-1.32813 1.79688,-2.26563 1.09375,-1.01562 2.96875,-1.79687 1.95312,-0.78125 4.375,-0.78125 12.73437,0 12.73437,15.15625 0,3.4375 -0.625,6.48437 -0.54687,2.96875 -1.95312,5.78125 -1.32813,2.8125 -3.98438,4.45313 -2.65625,1.64062 -6.40625,1.64062 -2.5,0 -4.45312,-0.85937 -1.95313,-0.85938 -2.96875,-2.10938 -1.01563,-1.25 -1.71875,-2.42187 -0.625,-1.25 -0.78125,-2.10938 z"
           style="font-size:160px;line-height:1"
           id="path931" />
        <path
           d="m 756.77344,414.80144 q 12.5,0 22.42187,-2.57812 10,-2.57813 20.3125,-8.75 v -17.5 h -23.98437 q -0.15625,4.60937 -2.73438,7.34375 -2.57812,2.73437 -8.20312,2.73437 -6.40625,0 -10.15625,-5.15625 -3.67188,-5.23437 -3.67188,-13.125 h 47.03125 q 1.48438,0.625 1.79688,0.39063 0.39062,-0.3125 1.09375,-2.57813 0.39062,-2.89062 0.39062,-5.54687 0,-11.71875 -4.92187,-21.09375 -4.84375,-9.375 -14.76563,-15.07813 -9.92187,-5.78125 -23.35937,-5.78125 -14.0625,0 -24.60938,5.85938 -10.46875,5.78125 -15.85937,15.85937 -5.39063,10 -5.39063,22.89063 0,11.48437 5.70313,21.09375 5.70312,9.60937 15.9375,15.3125 10.3125,5.70312 22.96875,5.70312 z m -5.85938,-52.65625 q 0,-4.76562 2.10938,-8.51562 2.10937,-3.82813 6.32812,-3.82813 2.89063,0 4.76563,1.40625 1.875,1.32813 2.57812,3.90625 0.70313,2.5 0.85938,4.53125 0.23437,2.03125 0.15625,4.76563 h -16.79688 z"
           style="font-size:160px;line-height:1"
           id="path933" />
        <path
           d="m 812.00781,329.64519 h 42.42188 v 12.73438 l 0.3125,0.3125 q 3.82812,-6.5625 11.01562,-10.23438 7.1875,-3.67187 14.92188,-3.67187 v 32.5 l -8.28125,-0.54688 q -8.59375,0 -13.51563,5 -4.92187,4.92188 -4.92187,14.375 v 9.45313 h 10.70312 v 23.82812 h -52.65625 v -23.82812 h 6.17188 v -35.625 h -6.17188 z"
           style="font-size:160px;line-height:1"
           id="path935" />
        <path
           d="m 166.46094,577.34832 h 11.48437 v -71.17188 h -11.48437 v -27.57812 h 63.20312 v 27.57812 h -7.42187 v 22.1875 h 21.01562 v -22.1875 h -6.875 v -27.57812 h 62.34375 v 27.57812 h -11.01562 v 71.17188 h 11.48437 v 28.04687 h -62.5 v -28.04687 h 6.5625 v -21.5625 h -21.01562 v 21.5625 h 7.5 l -0.0781,28.04687 h -63.20312 z"
           style="font-size:160px;line-height:1"
           id="path937" />
        <path
           d="m 367.08594,593.20769 q -4.29688,6.64063 -11.5625,10.15625 -7.1875,3.4375 -16.40625,3.4375 -25.78125,0 -25.78125,-31.48437 v -29.375 h -6.25 v -24.29688 h 44.84375 v 49.53125 q 0,4.14063 2.10937,6.79688 2.10938,2.57812 4.92188,2.57812 3.67187,0 5.85937,-2.65625 2.26563,-2.73437 2.26563,-6.71875 v -25.23437 h -6.32813 v -24.29688 h 44.92188 v 59.92188 h 5.9375 v 23.82812 h -44.53125 z"
           style="font-size:160px;line-height:1"
           id="path939" />
        <path
           d="m 493.57031,545.94207 v -25 h -13.125 l -2.10937,3.75 q -0.78125,-0.54688 -2.34375,-1.25 -1.5625,-0.78125 -7.5,-2.03125 -5.9375,-1.32813 -13.125,-1.32813 -9.45313,0 -16.5625,2.73438 -7.03125,2.73437 -11.32813,8.98437 -4.29687,6.17188 -4.29687,15.3125 0,6.01563 2.10937,10.54688 2.1875,4.53125 5.54688,7.1875 3.4375,2.65625 7.5,4.60937 4.14062,1.875 8.28125,3.20313 4.14062,1.32812 7.5,2.57812 3.4375,1.25 5.54687,3.20313 2.1875,1.875 2.1875,4.53125 0,2.96875 -2.65625,4.53125 -2.57812,1.5625 -5.78125,1.5625 -5.15625,0 -8.75,-4.21875 -3.59375,-4.29688 -4.53125,-9.6875 h -17.26562 l -0.54688,29.53125 h 13.82813 l 2.8125,-5.23438 q 7.8125,7.34375 24.0625,7.34375 15.85937,0 23.98437,-8.20312 8.125,-8.20313 8.125,-24.0625 0,-17.65625 -18.82812,-25.3125 -1.09375,-0.39063 -4.76563,-1.32813 -3.67187,-0.9375 -6.40625,-1.79687 -2.73437,-0.85938 -5.07812,-2.65625 -2.34375,-1.79688 -2.34375,-4.14063 0,-2.73437 2.10937,-4.21875 2.1875,-1.5625 5.07813,-1.5625 2.65625,0 5.39062,1.40625 2.73438,1.40625 4.21875,3.59375 0.3125,0.39063 1.17188,2.26563 0.85937,1.875 1.5625,3.51562 l 0.625,1.64063 z"
           style="font-size:160px;line-height:1"
           id="path941" />
        <path
           d="m 565.21094,578.20769 q -4.92188,1.09375 -8.4375,1.09375 -4.375,0 -6.01563,-2.5 -1.64062,-2.57812 -1.64062,-5.625 l 0.0781,-25.23437 h 11.875 v -24.29688 h -11.875 v -26.09375 l -38.04687,8.20313 v 17.89062 h -8.04688 v 24.29688 h 8.4375 l -0.0781,29.375 q -0.15625,31.48437 29.6875,31.48437 6.25,0 12.26562,-1.32812 6.01563,-1.25 8.90625,-2.57813 l 2.89063,-1.32812 z"
           style="font-size:160px;line-height:1"
           id="path943" />
        <path
           d="m 618.25781,581.56707 h 6.09375 v 23.82812 h -50.54687 v -23.82812 h 5.78125 v -79.0625 h -6.5625 v -24.45313 h 45.23437 z"
           style="font-size:160px;line-height:1"
           id="path945" />
        <path
           d="m 676.92969,606.80144 q 12.5,0 22.42187,-2.57812 10,-2.57813 20.3125,-8.75 v -17.5 h -23.98437 q -0.15625,4.60937 -2.73438,7.34375 -2.57812,2.73437 -8.20312,2.73437 -6.40625,0 -10.15625,-5.15625 -3.67188,-5.23437 -3.67188,-13.125 h 47.03125 q 1.48438,0.625 1.79688,0.39063 0.39062,-0.3125 1.09375,-2.57813 0.39062,-2.89062 0.39062,-5.54687 0,-11.71875 -4.92187,-21.09375 -4.84375,-9.375 -14.76563,-15.07813 -9.92187,-5.78125 -23.35937,-5.78125 -14.0625,0 -24.60938,5.85938 -10.46875,5.78125 -15.85937,15.85937 -5.39063,10 -5.39063,22.89063 0,11.48437 5.70313,21.09375 5.70312,9.60937 15.9375,15.3125 10.3125,5.70312 22.96875,5.70312 z m -5.85938,-52.65625 q 0,-4.76562 2.10938,-8.51562 2.10937,-3.82813 6.32812,-3.82813 2.89063,0 4.76563,1.40625 1.875,1.32813 2.57812,3.90625 0.70313,2.5 0.85938,4.53125 0.23437,2.03125 0.15625,4.76563 h -16.79688 z"
           style="font-size:160px;line-height:1"
           id="path947" />
      </g>
      <path
         transform="rotate(-114.2)"
         style="opacity:1;vector-effect:none;fill:none;fill-opacity:1;stroke:none;stroke-width:9.01020908;stroke-linecap:butt;stroke-linejoin:miter;stroke-miterlimit:4;stroke-dasharray:none;stroke-dashoffset:0;stroke-opacity:1"
         d="m -82.57357,35.85836 a 98.76368,98.76368 0 0 1 -98.76368,98.76368 98.76368,98.76368 0 0 1 -98.76368,-98.76368 98.76368,98.76368 0 0 1 98.76368,-98.763679 98.76368,98.76368 0 0 1 98.76368,98.763679 z"
         id="path837-8" />
      <g
         aria-label="路 THE 路"
         style="font-style:normal;font-variant:normal;font-weight:normal;font-stretch:normal;font-size:22.57777786px;line-height:1.25;font-family:Bevan;-inkscape-font-specification:Bevan;letter-spacing:0px;word-spacing:0px;fill:#ffffff;fill-opacity:0.82352941;stroke:none;stroke-width:0.26458332"
         id="text915">
        <path
           d="m 67.84491,53.905646 q -1.21595,0.49247 -2.30045,0.134794 -1.088639,-0.367894 -1.564556,-1.542971 -0.467641,-1.154642 0.04602,-2.147692 0.523875,-0.997188 1.770479,-1.502074 1.297694,-0.525578 2.388274,-0.182259 1.090581,0.34332 1.558221,1.497962 0.475917,1.175077 -0.09077,2.213394 -0.560608,1.02396 -1.807212,1.528846 z"
           style="fill:#ffffff;fill-opacity:0.82352941;stroke-width:0.26458332"
           id="path951" />
        <path
           d="m 89.393615,42.595281 -1.361982,-3.149287 -1.143476,0.2409 2.068105,9.816636 1.769152,-0.372714 0.818152,3.883504 -9.611673,2.024925 -0.818152,-3.883504 1.769152,-0.372713 -2.068105,-9.816636 -1.078751,0.227264 0.0028,3.43564 -3.031291,0.638613 -1.493126,-7.087395 15.717404,-3.311241 1.493127,7.087395 z"
           style="fill:#ffffff;fill-opacity:0.82352941;stroke-width:0.26458332"
           id="path953" />
        <path
           d="m 98.267865,47.900147 1.620541,0.01008 0.06249,-10.042948 -1.620542,-0.01008 0.02421,-3.891504 8.918488,0.0555 -0.0242,3.891505 -1.04729,-0.0065 -0.0195,3.130842 2.96548,0.01845 0.0195,-3.130842 -0.97012,-0.006 0.0242,-3.891505 8.79723,0.05474 -0.0242,3.891505 -1.5544,-0.0097 -0.0625,10.042948 1.62054,0.01008 -0.0246,3.957649 -8.81927,-0.05488 0.0246,-3.957649 0.92603,0.0058 0.0189,-3.042649 -2.96548,-0.01845 -0.0189,3.04265 1.05831,0.0066 -0.0356,3.957581 -8.918492,-0.0555 z"
           style="fill:#ffffff;fill-opacity:0.82352941;stroke-width:0.26458332"
           id="path955" />
        <path
           d="m 132.11714,44.102412 -0.17267,-3.428801 -2.30312,-0.457805 -0.60611,3.049198 2.21662,0.44061 -0.75656,3.806091 -2.21662,-0.44061 -0.59536,2.995134 2.36799,0.470701 0.27168,-0.631638 1.25507,-2.751599 2.95188,0.586764 -1.47658,7.428365 -13.82952,-2.748978 0.77161,-3.88178 1.70842,0.339592 1.95802,-9.850423 -1.70841,-0.339592 0.75871,-3.816904 13.71058,2.725335 -1.40566,7.071544 z"
           style="fill:#ffffff;fill-opacity:0.82352941;stroke-width:0.26458332"
           id="path957" />
        <path
           d="m 144.79529,53.335277 q -1.22293,-0.474871 -1.76742,-1.478662 -0.54051,-1.014068 -0.0816,-2.195891 0.45093,-1.161271 1.50561,-1.532265 1.06496,-0.367004 2.31872,0.119838 1.30514,0.506795 1.86391,1.5043 0.55876,0.997505 0.10783,2.158775 -0.45891,1.181824 -1.58323,1.549429 -1.11005,0.361319 -2.36382,-0.125524 z"
           style="fill:#ffffff;fill-opacity:0.82352941;stroke-width:0.26458332"
           id="path959" />
      </g>
      <path
         transform="matrix(-0.6427876,0.76604445,0.76604445,0.6427876,0,0)"
         style="opacity:1;vector-effect:none;fill:none;fill-opacity:1;stroke:none;stroke-width:9.74169922;stroke-linecap:butt;stroke-linejoin:miter;stroke-miterlimit:4;stroke-dasharray:none;stroke-dashoffset:0;stroke-opacity:1"
         d="M 155.79187,180.85715 A 106.78178,106.78178 0 0 1 49.01009,287.63892 106.78178,106.78178 0 0 1 -57.771687,180.85715 106.78178,106.78178 0 0 1 49.01009,74.075371 106.78178,106.78178 0 0 1 155.79187,180.85715 Z"
         id="path837-8-5-1" />
      <g
         aria-label="路 PODCAST 路"
         transform="rotate(1,107.95791,243.67926)"
         style="font-style:normal;font-variant:normal;font-weight:normal;font-stretch:normal;font-size:22.57777786px;line-height:1.25;font-family:Bevan;-inkscape-font-specification:Bevan;letter-spacing:0px;word-spacing:0px;fill:#ffffff;fill-opacity:0.82352941;stroke:none;stroke-width:0.26458332"
         id="text940">
        <path
           d="m 44.779496,233.47092 q -1.033636,-0.80788 -1.264979,-1.92616 -0.224554,-1.12697 0.556163,-2.12586 0.76714,-0.98152 1.884027,-1.03205 1.125573,-0.0438 2.185267,0.78449 1.103124,0.86218 1.349942,1.97857 0.246818,1.11638 -0.520321,2.0979 -0.780717,0.99889 -1.963298,1.02607 -1.167106,0.0253 -2.226801,-0.80296 z"
           style="fill:#ffffff;fill-opacity:0.82352941;stroke-width:0.26458332"
           id="path963" />
        <path
           d="m 49.465582,244.09906 8.35865,4.49773 1.875363,-3.4852 -1.417378,-0.76268 1.097009,-2.03869 q 0.714699,0.50976 1.403972,0.88065 1.485335,0.79925 2.78238,1.13413 1.306752,0.34011 2.499873,0.19342 1.202829,-0.14146 2.208353,-0.93993 1.020455,-0.80295 1.774169,-2.25019 0.43432,-0.83041 0.64466,-1.59356 0.220049,-0.75792 0.219123,-1.38437 0.0043,-0.63615 -0.155654,-1.22298 -0.159952,-0.58683 -0.475928,-1.06983 -0.315975,-0.483 -0.746181,-0.93983 -0.420499,-0.45161 -0.956708,-0.82778 -0.530986,-0.38587 -1.116475,-0.76351 -0.570557,-0.38213 -1.206806,-0.71197 -0.636249,-0.32984 -1.262049,-0.6791 -0.15533,-0.0836 -0.242702,-0.1306 -0.07766,-0.0418 -0.20387,-0.1097 -0.126205,-0.0679 -0.232994,-0.12537 l -6.319955,-3.40073 -1.84402,3.42695 1.465919,0.7888 -4.758929,8.84406 -1.51446,-0.81492 z m 13.575564,-8.5942 0.815478,0.4388 q 0.75723,0.40746 1.052356,1.09206 0.295126,0.68461 -0.175021,1.55833 -1.049994,1.95133 -3.253727,0.76551 l -0.398031,-0.21418 z"
           style="fill:#ffffff;fill-opacity:0.82352941;stroke-width:0.26458332"
           id="path965" />
        <path
           d="m 85.069872,249.62639 q -0.807962,2.4615 -2.599327,4.10128 -1.780891,1.64321 -4.124848,2.13856 -2.343958,0.49535 -4.742611,-0.29198 -2.398654,-0.78734 -3.993097,-2.57542 -1.594444,-1.78809 -2.065564,-4.17051 -0.460646,-2.37898 0.347316,-4.84048 0.887039,-2.70241 2.671368,-4.3561 1.798241,-1.66073 4.069357,-2.07556 2.281591,-0.41139 4.774515,0.40688 2.451026,0.80453 4.034515,2.48459 1.593963,1.6835 2.047733,4.08343 0.467682,2.39289 -0.419357,5.09531 z m -10.270315,2.30274 q 0.408505,0.13409 0.777909,0.1045 0.369405,-0.0296 0.668446,-0.1983 0.309515,-0.16527 0.583689,-0.43497 0.274174,-0.2697 0.492217,-0.61583 0.221481,-0.35662 0.418415,-0.74449 0.196934,-0.38788 0.341496,-0.79294 0.158475,-0.41211 0.299598,-0.8067 0.141124,-0.39459 0.247546,-0.75416 0.06876,-0.20949 0.103144,-0.31423 0.03782,-0.11522 0.120335,-0.36661 0.113298,-0.38052 0.261298,-0.79606 0.148,-0.41554 0.24003,-0.87266 0.105942,-0.46415 0.170146,-0.9072 0.07468,-0.43961 0.03086,-0.8717 -0.04382,-0.43209 -0.181427,-0.79054 -0.127134,-0.35501 -0.442169,-0.63246 -0.311596,-0.28793 -0.772473,-0.43921 -0.408504,-0.13409 -0.784945,-0.11841 -0.365966,0.0191 -0.661569,0.17735 -0.292165,0.14776 -0.569937,0.39307 -0.263859,0.23828 -0.475026,0.56347 -0.197254,0.31815 -0.397787,0.68164 -0.186619,0.35645 -0.324305,0.74057 -0.134247,0.37364 -0.275531,0.73337 -0.130809,0.36317 -0.216443,0.69475 -0.08252,0.25139 -0.120334,0.36661 -0.03438,0.10474 -0.103144,0.31423 -0.09267,0.31767 -0.216603,0.65989 -0.123933,0.34222 -0.226757,0.72618 -0.08891,0.37692 -0.177823,0.75384 -0.08891,0.37692 -0.132487,0.75712 -0.0331,0.38364 -0.0315,0.73225 0.0016,0.34862 0.0798,0.67597 0.08164,0.31687 0.225803,0.58465 0.158077,0.26074 0.424017,0.47566 0.269378,0.20445 0.62551,0.32135 z"
           style="fill:#ffffff;fill-opacity:0.82352941;stroke-width:0.26458332"
           id="path967" />
        <path
           d="m 85.919102,258.86108 8.783162,1.01394 q 2.212217,0.25538 4.082029,-0.2723 1.869817,-0.52768 3.140687,-1.63498 1.27214,-1.11826 2.05906,-2.64766 0.78692,-1.52939 0.99299,-3.3145 0.50065,-4.33682 -1.48525,-6.84107 -1.98463,-2.5152 -6.496678,-3.03608 l -9.089805,-1.04934 -0.445022,3.85496 1.850816,0.21366 -1.153011,9.98783 -1.785106,-0.20607 z m 8.229488,-3.03399 1.153011,-9.98783 0.514724,0.0594 q 0.810416,0.0936 1.376089,0.48069 0.566937,0.37618 0.850808,0.89724 0.285135,0.51011 0.402615,1.22281 0.128431,0.71397 0.120813,1.35675 -0.0064,0.63183 -0.09359,1.38748 -0.08471,0.73376 -0.248174,1.38074 -0.152517,0.64824 -0.462149,1.31164 -0.308368,0.65245 -0.726661,1.10355 -0.41703,0.44015 -1.066982,0.68695 -0.637736,0.23711 -1.437201,0.14481 z"
           style="fill:#ffffff;fill-opacity:0.82352941;stroke-width:0.26458332"
           id="path969" />
        <path
           d="m 120.2502,253.24248 -3.31296,0.18834 q 0.002,0.81699 -0.0292,1.03962 -0.11504,0.88991 -0.76742,1.45701 -0.64199,0.55548 -1.53352,0.60616 -0.67139,0.0382 -1.19146,-0.17519 -0.52007,-0.21337 -0.82939,-0.60434 -0.29831,-0.3916 -0.52646,-0.90865 -0.21715,-0.51768 -0.29371,-1.08752 -0.0766,-0.56983 -0.14212,-1.14029 -0.0662,-0.58147 -0.0613,-1.07865 -0.0188,-0.33019 -0.0275,-0.48428 -0.0294,-0.51731 -0.039,-0.88115 -0.01,-0.36384 0.0147,-0.90629 0.0244,-0.54245 0.10216,-0.9223 0.0772,-0.39086 0.2515,-0.82037 0.17434,-0.42952 0.42348,-0.70869 0.26015,-0.2798 0.658,-0.46805 0.40824,-0.19988 0.92555,-0.22929 0.69341,-0.0394 1.23924,0.23874 0.54521,0.26714 0.85953,0.74616 0.31433,0.47903 0.47832,1.03286 0.16336,0.54281 0.18552,1.12679 l 3.27995,-0.18646 -0.40645,-6.95551 -3.42303,0.1946 -0.3298,0.80273 q -0.5222,-0.44512 -1.28503,-0.65572 -0.75246,-0.22224 -1.33893,-0.24411 -0.58648,-0.0219 -1.40096,0.0244 -1.55192,0.0882 -2.79802,0.70012 -1.2461,0.6119 -2.0533,1.56324 -0.80721,0.95134 -1.33211,2.20686 -0.51452,1.24388 -0.70422,2.56867 -0.1897,1.3248 -0.11023,2.72263 0.15767,2.77364 1.20961,4.76768 1.06231,1.98239 3.04315,3.02921 1.99184,1.04619 4.72146,0.89102 1.14468,-0.0651 2.26334,-0.39368 1.12966,-0.32923 1.91249,-0.73812 0.7822,-0.4199 1.39931,-0.83041 0.6171,-0.41051 0.92127,-0.69281 l 0.30418,-0.28231 z"
           style="fill:#ffffff;fill-opacity:0.82352941;stroke-width:0.26458332"
           id="path971" />
        <path
           d="m 130.44189,239.65317 -10.69341,2.39423 0.85027,3.79756 2.28068,-0.51064 -0.21486,7.71894 q -0.0376,1.19462 -0.0981,1.47931 -0.17195,0.89709 -0.9653,1.28937 -0.3465,0.16796 -0.81985,0.27394 l 0.86471,3.86211 7.2939,-1.63309 -0.86472,-3.86211 -0.90367,0.20233 q -0.22592,0.0506 -0.43097,-0.31021 -0.20505,-0.36079 -0.27249,-0.66201 -0.0398,-0.22833 -0.0556,-0.34907 -0.0157,-0.12075 0.0355,-0.24519 0.0488,-0.1352 0.18866,-0.16651 l 2.95844,-0.66239 q 0.72078,-0.16138 1.11581,1.60292 l -1.29096,0.28905 0.87548,3.85969 8.88607,-1.98957 -0.86472,-3.86211 -0.92519,0.20715 q -0.16137,0.0361 -0.30861,-0.0665 -0.14965,-0.11336 -0.25273,-0.27103 -0.0923,-0.16009 -0.25307,-0.47431 z m -4.11693,10.52444 -0.0187,-5.73482 2.4823,5.18323 z"
           style="fill:#ffffff;fill-opacity:0.82352941;stroke-width:0.26458332"
           id="path973" />
        <path
           d="m 141.73449,235.69541 q -0.0947,0.60526 -0.0876,0.74453 -1.58319,-0.44608 -3.56467,0.32905 -2.28948,0.89561 -2.9244,2.81311 -0.62465,1.91349 0.3312,4.35697 0.26507,0.6776 0.5864,1.22666 0.33159,0.54504 0.6806,0.95305 0.34901,0.40801 0.78061,0.72452 0.42759,0.30625 0.84982,0.50805 0.42224,0.2018 0.94536,0.32862 0.52313,0.12681 0.9976,0.1898 0.48073,0.0487 1.08465,0.0492 0.60393,5.1e-4 1.12617,-0.0262 0.51823,-0.037 1.19225,-0.0994 0.42003,-0.0459 0.72087,-0.0334 0.30085,0.0125 0.62712,0.18084 0.32226,0.15804 0.45881,0.50711 0.16466,0.42094 -0.0818,0.78961 -0.24017,0.35438 -0.69191,0.5311 -0.74947,0.29318 -1.65823,-0.002 -0.91278,-0.30585 -1.4729,-0.95089 l -3.30588,1.29321 2.0804,5.31816 3.31615,-1.29723 1.1e-4,-1.08912 q 1.06587,0.36434 1.90324,0.35639 0.85166,-0.002 1.96047,-0.43545 1.078,-0.4217 1.83154,-1.24918 0.75979,-0.84176 1.08485,-1.85675 0.33532,-1.01901 0.29482,-2.15143 -0.0302,-1.13644 -0.46043,-2.17561 -0.43822,-1.05971 -1.05278,-1.81368 -0.60831,-0.76825 -1.27469,-1.17049 -0.67039,-0.4125 -1.40776,-0.63308 -0.74138,-0.23084 -1.47207,-0.25279 -0.72444,-0.0362 -1.43505,-0.007 -0.70034,0.0254 -1.32525,0.0923 -0.61867,0.0526 -1.11413,0.057 -0.49546,0.004 -0.84048,-0.12105 -0.33476,-0.12948 -0.45525,-0.43748 -0.18474,-0.47227 -0.0205,-0.80881 0.1643,-0.33653 0.61603,-0.51325 0.77001,-0.30121 1.64752,0.0658 0.8775,0.36699 1.37557,1.09551 l 3.15188,-1.23298 -2.07236,-5.29762 z"
           style="fill:#ffffff;fill-opacity:0.82352941;stroke-width:0.26458332"
           id="path975" />
        <path
           d="m 159.18046,234.75973 -2.26606,-2.57642 -1.01362,0.58151 4.99216,8.70182 1.56824,-0.89969 1.97492,3.44248 -8.52013,4.88793 -1.97492,-3.44248 1.56824,-0.89968 -4.99217,-8.70183 -0.95624,0.54859 1.0612,3.26765 -2.68705,1.54153 -3.60423,-6.28252 13.93248,-7.99295 3.60423,6.28252 z"
           style="fill:#ffffff;fill-opacity:0.82352941;stroke-width:0.26458332"
           id="path977" />
        <path
           d="m 170.98264,232.15334 q -1.015,0.83117 -2.15679,0.81149 -1.14877,-0.0282 -1.952,-1.0091 -0.78926,-0.96382 -0.59348,-2.06458 0.2043,-1.10774 1.24489,-1.95986 1.08324,-0.88704 2.22657,-0.88287 1.14334,0.004 1.9326,0.96799 0.80323,0.98088 0.57024,2.14061 -0.23144,1.1442 -1.27203,1.99632 z"
           style="fill:#ffffff;fill-opacity:0.82352941;stroke-width:0.26458332"
           id="path979" />
      </g>
    </g>
  </g>
</svg>
